<?xml version="1.0" encoding="UTF-8"?>
<svg width="140px" height="35px" viewBox="0 0 140 35" version="1.1" xmlns="http://www.w3.org/2000/svg" xmlns:xlink="http://www.w3.org/1999/xlink">
    <title>atome/logo/main</title>
    <g id="Homepage" stroke="none" stroke-width="1" fill="none" fill-rule="evenodd">
        <g id="Navigation_evolis_desktop" transform="translate(-30.000000, -30.000000)" fill-rule="nonzero">
            <g id="atome/logo/main" transform="translate(30.000000, 30.000000)">
                <rect id="Rectangle" fill="#D81F24" x="0" y="0" width="139.924712" height="34.9431472"></rect>
                <path d="M25.1569782,28.7621827 L5.50678617,28.7621827 L10.28758,5.99619289 L29.0074264,5.99619289 L28.0788732,10.7327411 L16.5275288,10.7327411 L15.8642766,14.4175127 L26.7505762,14.4175127 L25.822023,19.1558376 L14.9339309,19.1558376 L13.8709347,23.3664975 L26.0873239,23.3664975 L25.1569782,28.7621827 L25.1569782,28.7621827 Z M73.9364917,7.54720812 C77.5933419,10.2459391 77.3477593,15.1850254 76.4676056,19.1700508 C75.9620999,21.4601523 74.8973111,23.4322335 73.140589,25.0187817 C69.1628681,28.6111675 63.5108835,30.3291878 58.3823303,28.1243655 C57.2691421,27.6446701 56.3979513,26.9766497 55.6647887,26.1700508 C54.9567222,25.3901015 54.3795134,24.4840102 53.8363636,23.4997462 C53.8363636,23.4997462 53.7642583,23.2618564 53.6814288,22.9883042 L53.5972981,22.7103543 C53.5141394,22.4354967 53.440717,22.1923858 53.4384123,22.1832487 C52.9866837,20.6926396 53.4455826,18.230203 53.6571063,16.7147208 C54.3759283,11.5713198 57.8248399,7.0319797 63.1057618,5.88248731 C66.5618438,5.13096447 71.0289373,5.40101523 73.9364917,7.54720812 Z M38.0366197,6.12766497 L40.1608195,21.9185279 L47.8617157,6.12766497 L55.6952625,6.12766497 L42.8174136,28.7621827 L35.3818182,28.7621827 L30.8663252,6.12766497 L38.0366197,6.12766497 Z M60.6857875,15.3395939 C60.1139565,17.0984772 59.5510883,19.7758883 60.4133163,21.6271574 C60.7037132,22.2507614 61.1572343,22.7819797 61.8258643,23.1515228 C63.5700384,24.1126904 65.8071703,23.5121827 67.0798976,22.0357868 C68.5103713,20.3781726 69.7113956,18.4274112 69.903201,16.2101523 C70.0483995,14.5401015 69.8548015,12.006599 68.2181818,11.0827411 C65.2371319,9.40203046 61.5444302,12.6923858 60.6857875,15.3395939 Z M82.7828425,6.12766497 L90.2184379,6.25913706 L86.4988476,23.3664975 L97.5195903,23.3664975 L96.4583867,28.7621827 L78.1346991,28.7621827 L82.7828425,6.12766497 L82.7828425,6.12766497 Z M106.416133,28.6307107 L99.3784891,28.6307107 L104.026633,5.99619289 L111.462228,5.99619289 L106.416133,28.6307107 L106.416133,28.6307107 Z M134.166965,12.4436548 C131.863508,12.4862944 129.457875,12.7048223 127.161588,12.5413706 C127.322919,12.5520305 126.285019,10.4946701 126.116517,10.327665 C125.481946,9.69517766 124.791805,9.39847716 123.895519,9.54238579 C122.610243,9.75203046 121.943406,10.7309645 121.701408,11.9479695 C121.552625,12.7137056 125.526761,14.1225888 126.11831,14.3340102 C128.647631,15.2383249 131.241485,16.064467 132.179001,18.8928934 C134.641997,26.3175127 125.177209,30.5015228 119.046607,29.0677665 C117.306018,28.6609137 114.389501,27.2467005 113.443022,25.6494924 C112.643534,24.2992386 112.30653,22.2862944 112.388988,20.7335025 L119.161332,20.6020305 C119.3621,22.3946701 119.611268,24.9228426 122.040205,24.9352792 C124.549808,24.9477157 126.826376,22.5137056 124.623303,20.4332487 C121.941613,17.8997462 117.334699,18.5677665 115.53137,14.9043147 C113.075544,9.91548223 118.725736,6.18096447 122.8379,5.44720812 C128.050704,4.5180203 133.489373,6.76192893 134.165173,12.4436548 L134.166965,12.4436548 Z" id="Combined-Shape" fill="#FFFFFF"></path>
            </g>
        </g>
    </g>
</svg>