<svg version="1.1" id="Calque_1" fill="white"  xmlns="http://www.w3.org/2000/svg" xmlns:xlink="http://www.w3.org/1999/xlink" x="0px" y="0px" viewBox="0 0 200 200" style="enable-background:new 0 0 200 200;" xml:space="preserve" class="s-ion-icon">
<style type="text/css">
	.st1{opacity:0.5;}
</style>
<g>
	<path class="st0" d="M177,84.6c-0.2-9.6-0.5-20-2.3-29.6c-2.1-11-10.8-24.8-19.3-31.9c-9.9-8-20.4-17-33.3-18.8
		c-14-2.1-28.6-1.6-42.5,1.5c-13.5,3-22.1,7.2-36.7,19.3c-5.4,4.5-11.6,13.9-16.1,21.1c-3,4.9-3.9,11.9-5.3,17.5
		c-2.5,11.2-1.8,22.5,0.2,33.7c1.8,9.9,5.3,20.2,10.8,28.7c3.9,5.7,7.3,11.3,12.9,15.8c3.2,2.8,6.7,6.9,11,8.3c3.2-2.5,5.3-6,9-8
		c3.2-2.1,7.1-3,10.8-4.4c11.7-4.1,22.5-4.8,34.9-2.8c5,0.9,10.3,2.8,14.9,4.8c4.6,2.1,15.2,6.4,17.5,11
		c12.4-7.6,20.2-22.5,25.7-35.6c2.5-5.3,5-9.9,6.2-15.6C176.6,95.2,177.2,89.2,177,84.6z M84.3,97.4c-1.6,1.9-3.1,3.9-4.8,5.7
		c-3.3,3.7-6.9,7.2-10,11.1h0l0,0c-1.1,1-2.4,1.8-3.9,2.2c-0.8,0.2-1.6,0.2-2.4,0c-0.8-0.2-1.5-0.6-2.1-1.1
		c-0.4-0.3-0.6-0.5-0.8-0.8c-0.2-0.3-0.5-0.7-0.7-1.1c-0.4-0.7-0.6-1.6-0.6-2.4c0-0.8,0.2-1.7,0.6-2.4c0.2-0.4,0.4-0.7,0.6-1
		c0.2-0.4,0.4-0.6,0.8-1l0-0.1c1.9-1.7,3.8-3.4,5.7-5c1.9-1.7,3.9-3.3,5.9-4.9c2-1.6,3.9-3.2,6-4.7c2-1.6,6.3-5.3,8.4-6.8l4.3,4.4
		C91.2,89.4,85.9,95.4,84.3,97.4z M134.2,110.5L134.2,110.5c-0.6,0.6-1.4,1-2.2,1c-0.9,0-1.6-0.3-2.4-0.6c-1.5-0.8-2.8-1.8-3.9-3
		c-2.3-2.3-4.7-4.6-7-6.9l-7-6.9c-2.2-2.2-6.7-6.7-6.7-6.7c-1.9,0.1-3.7,0.1-5.6,0.1h-0.3l-0.3-0.2c-5-4.9-10-9.9-14.9-14.9
		c-2.5-2.5-4.8-5.2-7.1-7.9c-2.3-2.7-4.5-5.4-6.7-8.2c-2.1-2.8-4.2-5.7-5.9-8.9c-0.9-1.6-1.6-3.2-2.1-5c-0.2-0.9-0.4-1.8-0.4-2.8
		c0-0.5,0.1-1,0.2-1.4c0.2-0.4,0.3-0.9,0.7-1.3c0.2-0.2,0.2-0.4,0.5-0.6c0.1-0.1,0.4-0.3,0.7-0.4c0.6-0.2,1.1-0.2,1.6-0.1
		c1,0.2,1.8,0.8,2.5,1.3l3.8,3.7l7.5,7.5l14.9,14.9l14.8,15.1c4.9,5.1,9.7,10.2,14.5,15.4l7.2,7.7c1.2,1.3,2.6,2.4,3.5,4
		c0.5,0.8,0.8,1.6,0.9,2.5C135.3,108.9,134.9,109.8,134.2,110.5z M139,57.5c-0.7,0.9-1.5,1.5-2.2,2.3c-1.5,1.5-3,3-4.5,4.6l-4.1,4.6
		l-2.6,2.3c-0.6,0.8-1.9,1.5-3,1.9c-2.2,0.9-4.3,1.2-6.5,0.8c-1.1-0.2-2.2-0.5-3.3-1.1c-1.1-0.5-2-1.4-2.7-2.1l-2.2-2.3
		c-0.7-0.7-1.6-1.6-2.2-2.6c-1.2-1.9-1.8-4.2-1.8-6.5c0-2.3,0.5-4.3,2.2-5.8l4.4-4.2c3.1-2.9,6.7-6.6,9.8-9.5c0.5-0.4,1-0.8,1.5-1.1
		c0.6-0.3,1.2-0.4,1.9-0.3c0.6,0.1,1.3,0.4,1.6,1c0.4,0.5,0.5,1.2,0.4,1.9c-0.1,0.7-0.4,1.3-0.8,1.8c-0.4,0.5-0.8,1-1.2,1.4
		l-2.4,2.9c-3.2,3.4-6.5,6.6-9.8,10l2.6,2.4c2.6-2.8,5.3-5.4,8-8.1l4.3-4.4c0.7-0.7,1.5-1.6,2.7-2.1c0.6-0.3,1-0.6,1.7-0.6
		c0.7,0.1,1.4,0.4,1.9,0.9c0.5,0.5,0.5,0.8,0.6,1.5c0.1,0.7,0,1.4-0.3,1.9c-0.5,1.2-1.4,2-2.1,2.7l-4.4,4.3l-8.3,8.1l2.2,2.2
		l8.8-8.4l4.6-4.5c0.8-0.7,1.8-1.4,3-1.4c1.2-0.1,2.4,0.7,2.7,1.9C140.1,55.4,139.7,56.6,139,57.5z"></path>
	<path class="st1" d="M86.2,148.5c-7.4,2.3-15.5,6.4-20.9,12.2l-0.8,0.8c-0.2,1.1,9.9,8.7,11.8,10c1.5-1.2,3-3.3,4.7-4.5
		c6.6-4.9,13.5-5.3,21.3-4.5c3.5,0.3,7.5,0.8,10.7,2c2.1,0.8,4,2,6,3.2c3.1,1.8,4.4,2.4,6.5,3.1c3.1-4.1,6.9-6.8,10.4-10.3
		c-8.3-5.7-16.5-12.4-26.8-13.8C101.1,145.4,93.7,146.1,86.2,148.5z"></path>
	<path class="st1" d="M105.9,174.2c-3.7-0.9-7.6-0.6-11.3,0.7c-2.5,0.9-9.7,3.9-9.8,6.5c2.4,3.3,4.2,4.6,6.5,6.9
		c3.2,3.2,5.1,4.9,8.7,7.4c2.3-1.3,2.4-2,3.7-3.1c2-1.7,3.9-3.6,5.7-5.3c1.8-1.5,3.2-2.8,4.7-4.7C118.5,176.9,109.2,175,105.9,174.2
		z"></path>
</g>
</svg>