<svg version="1.1" id="Calque_1" fill="white"  xmlns="http://www.w3.org/2000/svg" xmlns:xlink="http://www.w3.org/1999/xlink" x="0px" y="0px" viewBox="0 0 200 200" style="enable-background:new 0 0 200 200;" xml:space="preserve" class="s-ion-icon">
<style type="text/css">
	.st0{fill-rule:evenodd;clip-rule:evenodd;}
</style>
<path class="st0" d="M197.9,171.7l-7.6-19.3c-1.7-5.5-7.2-9.9-12.5-9.9h-58.9v-6.9l55.6,0c3.6,0,6.9-1.6,9.1-4.4
	c2.3-2.8,3.1-6.4,2.4-9.9c-8.9-42.1-40.7-72.3-78.7-75.8v-6.3h6.6c5.7,0,10.3-4.6,10.3-10.3V17.5c0-5.7-4.6-10.3-10.3-10.3h-28
	c-5.7,0-10.3,4.6-10.3,10.3V29c0,5.7,4.6,10.3,10.3,10.3h6.5v6.3c-37.9,3.5-69.7,33.6-78.6,75.6c-0.7,3.5,0.1,7.1,2.4,9.9
	c2.2,2.8,5.6,4.4,9.1,4.4l55.5,0v6.9H21.8c-8.3,0-11.2,6.8-12.4,9.7l-7.5,19c-1.1,2.8-0.7,5.9,1.1,8.4c2.2,3.2,6.3,5.3,10.3,5.3h173
	c3.8,0,7.5-1.9,9.8-4.8C198,177.6,198.7,174.5,197.9,171.7z M86.8,28.1v-9.7h26.1v9.7H86.8z M25.2,124.3c-0.1,0-0.3,0-0.4-0.2
	c-0.1-0.1-0.2-0.3-0.1-0.5C33.1,84,64,56.4,99.8,56.4c35.9,0,66.8,27.7,75.2,67.2c0,0.2,0,0.4-0.1,0.5c-0.2,0.2-0.4,0.2-0.4,0.2
	L25.2,124.3z M103.9,135.5v6.9h-8.3v-6.9L103.9,135.5z M186.3,173.7h-173c-0.1,0-0.2,0-0.3-0.1l6.9-17.4c1.1-2.6,1.5-2.6,2-2.6
	l155.8,0c0.6,0.1,1.8,1.3,2,2.1l7,18C186.5,173.7,186.4,173.7,186.3,173.7z"></path>
</svg>