<svg version="1.1" id="Calque_1" fill="white"  xmlns="http://www.w3.org/2000/svg" xmlns:xlink="http://www.w3.org/1999/xlink" x="0px" y="0px" viewBox="0 0 200 200" style="enable-background:new 0 0 200 200;" xml:space="preserve" class="s-ion-icon">
<style type="text/css">
	.st1{opacity:0.5;}
</style>
<g>
	<g>
		<path class="st0" d="M31.7,46.3H19.2v24.6c0,2.8,0.5,4.9,1.6,6.2c1.1,1.2,2.8,1.8,5.1,1.8c0.9,0,1.8-0.1,2.8-0.3
			c1-0.2,1.9-0.5,2.7-0.9l0.3,7.7c-1.1,0.4-2.4,0.7-3.8,0.9c-1.3,0.3-2.7,0.4-4.2,0.4c-4.4,0-7.9-1.2-10.2-3.7
			c-2.3-2.5-3.5-6.1-3.5-11V46.3h-9v-7.7h9V25.1h9.2v13.5h12.5V46.3z M50.8,85.8h-9.3V38.7h9.3V85.8z M52.4,21.7
			c0,1.7-0.6,3.1-1.9,4.3c-1.2,1.1-2.7,1.7-4.4,1.7c-1.7,0-3.2-0.6-4.4-1.7c-1.2-1.2-1.8-2.6-1.8-4.3c0-1.7,0.6-3.1,1.8-4.3
			c1.2-1.2,2.7-1.8,4.4-1.8c1.7,0,3.2,0.6,4.4,1.8C51.7,18.5,52.4,19.9,52.4,21.7z M76.2,46.4c1.2-2.5,3.1-4.6,5.7-6.4
			c2.7-1.8,5.8-2.7,9.3-2.7c3.2,0,6,0.7,8.5,2.2c2.6,1.5,4.6,3.9,6.1,7.3c1.6-3,3.8-5.4,6.7-7c2.8-1.7,6-2.5,9.3-2.5
			c3,0,5.7,0.5,7.9,1.6c2.2,1,4,2.4,5.5,4.1c1.5,1.7,2.5,3.7,3.2,6.1c0.7,2.3,1.1,4.8,1.1,7.5v29.2h-9.3V59.6c0-1.9-0.2-3.7-0.5-5.5
			c-0.3-1.7-0.9-3.2-1.7-4.6s-1.9-2.4-3.2-3.2c-1.3-0.8-3-1.2-5.1-1.2c-2.1,0-3.9,0.5-5.5,1.4c-1.5,0.9-2.8,2-3.8,3.5
			c-0.9,1.4-1.6,3-2.1,4.8c-0.4,1.8-0.6,3.6-0.6,5.5v25.4h-9.3v-28c0-1.9-0.2-3.5-0.5-5.1c-0.3-1.5-0.9-2.8-1.7-3.9
			c-0.8-1.1-1.8-2-3.1-2.6c-1.3-0.7-2.8-1-4.7-1c-3.4,0-6.3,1.4-8.6,4.3c-2.3,2.8-3.4,6.5-3.4,11.2v25.1h-9.3v-37
			c0-1.3,0-2.9-0.1-4.9c-0.1-2-0.2-3.7-0.3-5.3h8.8c0.1,1.2,0.2,2.6,0.3,4.1c0.1,1.5,0.1,2.7,0.1,3.7H76.2z M189.7,58
			c-0.1-1.9-0.4-3.6-1-5.2c-0.5-1.7-1.4-3.1-2.5-4.3c-1.1-1.2-2.4-2.1-4.1-2.8c-1.6-0.7-3.5-1.1-5.7-1.1c-2,0-3.9,0.4-5.7,1.1
			c-1.7,0.7-3.2,1.6-4.6,2.8c-1.3,1.2-2.3,2.6-3.2,4.3c-0.8,1.6-1.3,3.3-1.4,5.2H189.7z M199.2,61.8c0,0.5,0,1.1,0,1.6
			s0,1.1-0.1,1.6h-37.4c0.1,2,0.5,3.9,1.3,5.7c0.9,1.7,2,3.2,3.4,4.6c1.4,1.3,3,2.3,4.8,3c1.9,0.7,3.8,1.1,5.9,1.1
			c3.2,0,5.9-0.7,8.3-2.1c2.3-1.4,4.1-3.1,5.5-5.1l6.6,5.3c-2.5,3.3-5.5,5.8-8.9,7.4c-3.4,1.5-7.2,2.3-11.3,2.3
			c-3.6,0-6.9-0.6-9.9-1.8c-3-1.2-5.7-2.8-7.9-5c-2.2-2.2-3.9-4.8-5.2-7.9c-1.3-3-1.9-6.4-1.9-10.1c0-3.6,0.6-7,1.8-10
			c1.3-3.1,3-5.8,5.2-8c2.2-2.2,4.8-3.9,7.8-5.1c3-1.3,6.2-1.9,9.6-1.9s6.6,0.6,9.3,1.7c2.8,1.1,5.2,2.8,7.2,4.9
			c2,2.1,3.5,4.7,4.6,7.8C198.6,54.7,199.2,58,199.2,61.8z"></path>
	</g>
</g>
<g class="st1">
	<path class="st0" d="M43,140c-1.1-1.8-2.8-3.2-5-4.4c-2.1-1.2-4.4-1.8-7-1.8c-2.7,0-5.2,0.5-7.4,1.5c-2.2,0.9-4.1,2.3-5.7,4
		c-1.5,1.7-2.7,3.6-3.6,6c-0.8,2.3-1.2,4.7-1.2,7.4s0.4,5.1,1.2,7.4c0.9,2.3,2.1,4.2,3.6,6c1.5,1.7,3.4,3,5.6,4
		c2.2,0.9,4.6,1.4,7.4,1.4c3,0,5.5-0.6,7.6-1.7c2.1-1.1,3.7-2.6,5.1-4.4l5.1,3.8c-2,2.5-4.4,4.4-7.4,5.9c-2.8,1.5-6.3,2.2-10.3,2.2
		c-3.8,0-7.2-0.6-10.2-1.8c-3-1.3-5.7-3-7.9-5.2c-2.1-2.2-3.8-4.8-5-7.8s-1.8-6.2-1.8-9.7s0.6-6.8,1.8-9.7c1.2-3,2.8-5.6,5-7.8
		c2.2-2.2,4.8-3.9,7.9-5.1c3-1.3,6.5-1.9,10.2-1.9c3.1,0,6.3,0.7,9.4,2.1c3.2,1.3,5.9,3.3,7.9,6L43,140z M66.4,137
		c1.3-2.7,3.3-4.9,6.3-6.5c2.9-1.6,6-2.4,9.3-2.4c5.9,0,10.3,1.8,13.2,5.3c3,3.5,4.5,8.2,4.5,13.9v28.5h-6.8v-25.7
		c0-2.5-0.2-4.7-0.6-6.7c-0.4-2-1.1-3.7-2.1-5.1c-0.9-1.5-2.2-2.6-3.9-3.4c-1.6-0.8-3.6-1.2-6.1-1.2c-1.8,0-3.5,0.4-5.3,1.1
		c-1.7,0.7-3.1,1.9-4.5,3.4c-1.3,1.5-2.4,3.3-3.2,5.7c-0.8,2.3-1.2,4.9-1.2,8.1v23.9h-6.8v-75.2h6.8V137H66.4z M152.7,149
		c-0.2-4.4-1.6-8-4.3-10.8c-2.6-2.9-6.3-4.4-11.1-4.4c-2.3,0-4.3,0.4-6.3,1.3c-1.9,0.8-3.6,1.9-5.1,3.4c-1.5,1.4-2.6,3-3.5,4.9
		c-0.9,1.8-1.4,3.7-1.5,5.7H152.7z M159.5,151.2c0,0.5,0,1,0,1.5c0,0.5,0,1.1-0.1,1.7h-38.6c0.1,2.3,0.5,4.5,1.4,6.6
		c0.9,2.1,2.1,3.8,3.6,5.4c1.5,1.5,3.3,2.8,5.4,3.7c2.1,0.9,4.3,1.3,6.7,1.3c3.5,0,6.5-0.8,9-2.4c2.6-1.7,4.5-3.5,5.9-5.7l5.1,4
		c-2.8,3.5-5.9,6-9.2,7.6c-3.3,1.5-6.9,2.3-10.7,2.3c-3.4,0-6.7-0.6-9.6-1.8c-2.9-1.3-5.4-3-7.6-5.2c-2.1-2.2-3.8-4.8-5.1-7.8
		c-1.2-3-1.8-6.2-1.8-9.7s0.6-6.8,1.8-9.7c1.2-3,2.8-5.6,5-7.8c2.1-2.2,4.6-3.9,7.5-5.1c2.8-1.3,5.9-1.9,9.2-1.9
		c3.6,0,6.9,0.6,9.6,1.9c2.8,1.2,5.1,2.8,7,5c1.9,2.1,3.2,4.5,4.2,7.3C159,145.1,159.5,148,159.5,151.2z M193.7,135h-10.9v40.9h-6.8
		V135h-9.7v-5.7h9.7v-12.7c0-5.3,1.3-9.5,3.9-12.5s6.6-4.6,11.9-4.6c0.9,0,1.8,0.1,2.8,0.2c1,0.1,1.9,0.2,2.8,0.5l-1.2,6
		c-0.7-0.2-1.5-0.4-2.2-0.5c-0.7-0.1-1.6-0.2-2.5-0.2c-1.8,0-3.3,0.3-4.5,0.9c-1.1,0.6-2,1.5-2.7,2.6c-0.6,1.1-1,2.3-1.3,3.8
		c-0.2,1.5-0.3,3-0.3,4.7v11.9h10.9V135z"></path>
</g>
</svg>