<svg version="1.1" id="Calque_1" fill="white"  xmlns="http://www.w3.org/2000/svg" xmlns:xlink="http://www.w3.org/1999/xlink" x="0px" y="0px" viewBox="0 0 200 200" style="enable-background:new 0 0 200 200;" xml:space="preserve" class="s-ion-icon">
<g>
	<g>
		<g>
			<path class="st0" d="M3.3,106.8c2.1,0.6,4.1,1.5,6.2,2.1c7.9,2.1,10.5,0,10.8-8.5c0.3-6.7-0.3-13.2,0.9-19.9
				C24.1,64.9,30,51.7,46.4,47c17.3-5,33.4-1.5,46.6,11.4c0.9,0.9,1.8,2.1,3.5,3.5c7-11.7,17.6-16.7,30.8-17
				c12.9-0.3,24.6,2.3,35.8,12.3c-2.1-9.7,1.8-10.8,8.5-10.3c7,0.6,14.4,0.3,21.4,0c3.5,0,4.7,1.2,4.7,4.7c0,32.8,0,65.6,0,98.5
				c0,3.5-1.2,5-4.7,4.7c-7.9-0.3-16.1-0.3-24,0c-5.3,0.3-6.4-1.5-6.4-6.4c0.3-17.9,0.3-35.8,0-53.6c0-9.4-6.2-15.8-16.4-17
				c-9.4-1.2-15.8,3.2-18.8,12.3c-2.1,7-1.2,14.4-1.2,21.4c-0.3,12.6-0.3,25.5,0,38.1c0,4.4-1.2,5.9-5.6,5.6
				c-7.6-0.3-15.5-0.3-23.1,0c-5,0.3-6.7-1.2-6.4-6.4c0.3-17.6-0.6-35.5,0.3-53c0.6-11.1-8.5-17.3-16.4-18.2
				c-10-0.9-17,4.1-18.8,14.4c-1.2,7-0.6,14.4-1.2,21.4C53.7,131.7,43.5,140.8,25,139c-7.3-0.6-14.7-1.8-22-4.1
				C1.8,125.8,1.8,116.2,3.3,106.8z"></path>
		</g>
	</g>
</g>
</svg>