<svg version="1.1" id="Calque_1" fill="white" xmlns="http://www.w3.org/2000/svg" xmlns:xlink="http://www.w3.org/1999/xlink" x="0px" y="0px" viewBox="0 0 200 200" style="enable-background:new 0 0 200 200;" xml:space="preserve" class="s-ion-icon">
<style type="text/css">
	.st1{opacity:0.5;}
</style>
<g>
	<g>
		<g>
			<g>
				<path class="st0" d="M193.5,45.3c-6.1,0-10.5,4.8-10.5,12.2v27.1h-9.4V36.9h9.3v5.8c2.3-3.9,6.6-6.3,11.2-6.2h3.4v8.7
					L193.5,45.3z M167.2,60.7c0-14.2-10.1-24.8-23.8-24.8C129.8,36,118.9,47,119,60.6c0,0,0,0.1,0,0.1c0,14.2,11,25,25.3,25
					c8.1,0.2,15.8-3.6,20.6-10.2l-6.8-5c-3.2,4.4-8.3,7-13.8,6.9c-7.9,0-14.6-5.8-15.7-13.6h38.7L167.2,60.7z M128.7,56.4
					c1.7-7.3,7.5-12.2,14.5-12.2c7,0,12.8,4.9,14.4,12.2H128.7z M89.3,35.9c-6.3,0-12.4,2.5-16.9,7V19.1H63v65.5h9.3v-6
					c4.5,4.5,10.6,7.1,17,7.2c13.8,0.3,25.1-10.6,25.4-24.4c0.3-13.8-10.6-25.1-24.4-25.4C90,35.9,89.6,35.9,89.3,35.9L89.3,35.9z
					 M88.6,77.3C79.5,77.4,72,70,72,60.9c0-9.1,7.3-16.5,16.4-16.6c9.1,0,16.5,7.3,16.6,16.4c0,0,0,0.1,0,0.1
					C105,69.9,97.7,77.3,88.6,77.3C88.6,77.3,88.6,77.3,88.6,77.3L88.6,77.3z M28.5,76.9c9.1,0,16.1-6.9,16.1-17.4V19.1h9.7v65.5
					h-9.6v-6.2c-4.5,4.7-10.8,7.3-17.3,7.3c-14,0-24.7-10.2-24.7-25.6V19.1h9.9v40.5C12.5,70,19.3,76.9,28.5,76.9z"></path>
			</g>
		</g>
	</g>
	<g>
		<path class="st1" d="M133.6,111.5h-12.3v13.8H112v11h9.3V162c0,6.5,4.6,11.6,12.9,11.6h13.2v-11h-9.2c-2.8,0-4.6-1.2-4.6-3.8
			v-22.6h13.7v-11h-13.7V111.5 M173.5,124.1c-12.7,0-21.7,5.3-21.7,15.5c0,7,4.9,11.6,15.5,13.9l11.6,2.7c4.6,0.9,5.8,2.1,5.8,4
			c0,3-3.5,4.9-9.1,4.9c-7,0-11.1-1.6-12.6-6.9h-12.3c1.8,10.1,9.3,16.8,24.5,16.8c14.1,0,22-6.7,22-16c0-6.6-4.7-11.5-14.5-13.7
			l-10.4-2.1c-6-1.1-7.9-2.2-7.9-4.5c0-2.9,2.9-4.7,8.3-4.7c5.8,0,10.1,1.6,11.2,6.9h12.2C195.5,130.7,188.2,124.1,173.5,124.1
			 M78.5,124.1c-13.8,0-25.1,11-25.4,24.9C52.8,163,64,174.6,78,174.9c0.2,0,0.4,0,0.5,0s0.4,0,0.5,0c0,0,0.1,0,0.1,0
			c5.6,0,11-2,15.3-5.6v4.4h12.2v-48.3l-12.2,0v4.4c-4.3-3.6-9.7-5.6-15.4-5.6c0,0-0.1,0-0.1,0C78.9,124.1,78.7,124.1,78.5,124.1
			 M79.9,164.3c-8.1,0-14.7-6.5-14.8-14.6c-0.1-8.2,6.4-14.9,14.6-14.9c0.1,0,0.1,0,0.2,0c8.1,0,14.7,6.5,14.8,14.6l0,0.2
			c0.1,8.1-6.4,14.7-14.5,14.7l-0.2,0l0,0C80,164.3,80,164.3,79.9,164.3 M48.5,108.2H2.5v65.5h45.9v-11.2H14.9v-16.2h32.6v-10.9
			H14.9v-16h33.5V108.2"></path>
	</g>
</g>
</svg>